<?xml version="1.0" encoding="iso-8859-1"?>
<!-- Generator: Adobe Illustrator 18.1.1, SVG Export Plug-In . SVG Version: 6.00 Build 0)  -->
<svg version="1.1" id="Capa_1" xmlns="http://www.w3.org/2000/svg" xmlns:xlink="http://www.w3.org/1999/xlink" x="0px" y="0px"
	 viewBox="0 0 525.153 525.153" style="enable-background:new 0 0 525.153 525.153;" xml:space="preserve">
<g>
	<path d="M262.576,71.618V0l-95.468,95.468l95.468,95.512v-71.618c79.014,0,143.213,64.2,143.213,143.213
		c0,24.135-5.93,47.067-16.695,66.826l34.857,34.857c18.621-29.365,29.584-64.178,29.584-101.661
		C453.535,157.086,368.088,71.64,262.576,71.618z M262.576,405.79c-79.014,0-143.213-64.2-143.213-143.213
		c0-24.113,5.93-47.045,16.695-66.826l-34.857-34.835c-18.621,29.343-29.584,64.178-29.584,101.661
		c0,105.512,85.425,190.959,190.959,190.98v71.596l95.468-95.468l-95.468-95.49V405.79z"/>
</g>
<g>
</g>
<g>
</g>
<g>
</g>
<g>
</g>
<g>
</g>
<g>
</g>
<g>
</g>
<g>
</g>
<g>
</g>
<g>
</g>
<g>
</g>
<g>
</g>
<g>
</g>
<g>
</g>
<g>
</g>
</svg>
